<svg width="24" height="24" viewBox="0 0 24 24" fill="none" xmlns="http://www.w3.org/2000/svg">
<path d="M7.125 10.5H16.125C16.4234 10.5 16.7095 10.6185 16.9205 10.8295C17.1315 11.0405 17.25 11.3266 17.25 11.625C17.25 11.9234 17.1315 12.2095 16.9205 12.4205C16.7095 12.6315 16.4234 12.75 16.125 12.75H7.125C6.82663 12.75 6.54048 12.6315 6.3295 12.4205C6.11853 12.2095 6 11.9234 6 11.625C6 11.3266 6.11853 11.0405 6.3295 10.8295C6.54048 10.6185 6.82663 10.5 7.125 10.5ZM9.375 15H5.625C4.72989 15 3.87145 14.6444 3.23851 14.0115C2.60558 13.3786 2.25 12.5201 2.25 11.625C2.25 10.7299 2.60558 9.87145 3.23851 9.23851C3.87145 8.60558 4.72989 8.25 5.625 8.25H9.375C9.67337 8.25 9.95952 8.13147 10.1705 7.9205C10.3815 7.70952 10.5 7.42337 10.5 7.125C10.5 6.82663 10.3815 6.54048 10.1705 6.3295C9.95952 6.11853 9.67337 6 9.375 6H5.625C4.13316 6 2.70242 6.59263 1.64752 7.64752C0.592632 8.70242 0 10.1332 0 11.625C0 13.1168 0.592632 14.5476 1.64752 15.6025C2.70242 16.6574 4.13316 17.25 5.625 17.25H9.375C9.67337 17.25 9.95952 17.1315 10.1705 16.9205C10.3815 16.7095 10.5 16.4234 10.5 16.125C10.5 15.8266 10.3815 15.5405 10.1705 15.3295C9.95952 15.1185 9.67337 15 9.375 15ZM17.625 6H13.875C13.5766 6 13.2905 6.11853 13.0795 6.3295C12.8685 6.54048 12.75 6.82663 12.75 7.125C12.75 7.42337 12.8685 7.70952 13.0795 7.9205C13.2905 8.13147 13.5766 8.25 13.875 8.25H17.625C18.5201 8.25 19.3785 8.60558 20.0115 9.23851C20.6444 9.87145 21 10.7299 21 11.625C21 12.5201 20.6444 13.3786 20.0115 14.0115C19.3785 14.6444 18.5201 15 17.625 15H13.875C13.5766 15 13.2905 15.1185 13.0795 15.3295C12.8685 15.5405 12.75 15.8266 12.75 16.125C12.75 16.4234 12.8685 16.7095 13.0795 16.9205C13.2905 17.1315 13.5766 17.25 13.875 17.25H17.625C19.1168 17.25 20.5476 16.6574 21.6025 15.6025C22.6574 14.5476 23.25 13.1168 23.25 11.625C23.25 10.1332 22.6574 8.70242 21.6025 7.64752C20.5476 6.59263 19.1168 6 17.625 6Z" fill="#343330"/>
</svg>
